<?xml version="1.0" standalone="no"?>
<!DOCTYPE svg PUBLIC "-//W3C//DTD SVG 20010904//EN"
 "http://www.w3.org/TR/2001/REC-SVG-20010904/DTD/svg10.dtd">
<svg version="1.0" xmlns="http://www.w3.org/2000/svg"
 width="360.000000pt" height="360.000000pt" viewBox="0 0 360.000000 360.000000"
 preserveAspectRatio="xMidYMid meet">

<g transform="translate(0.000000,360.000000) scale(0.100000,-0.100000)"
fill="#000000" stroke="none">
<path d="M2924 3568 c4 -18 11 -75 17 -128 5 -52 19 -164 30 -249 11 -85 24
-195 29 -245 11 -120 36 -344 60 -531 10 -82 22 -179 25 -215 4 -36 13 -117
21 -180 7 -63 16 -142 19 -175 10 -112 56 -520 66 -585 5 -36 11 -96 14 -135
2 -38 9 -114 14 -169 6 -54 8 -102 6 -106 -3 -5 -1 -10 4 -12 5 -1 11 -39 13
-83 3 -77 2 -80 -20 -83 -16 -2 -22 -8 -18 -18 3 -8 1 -14 -4 -14 -6 0 -10 12
-11 28 l-1 27 -8 -25 c-5 -15 -8 -18 -9 -8 -1 9 -4 23 -7 32 -4 10 -1 16 9 16
30 0 28 20 -2 26 -17 4 -31 13 -31 20 0 9 -11 14 -29 14 -23 0 -30 5 -35 26
-4 15 -2 32 3 37 8 8 11 1 11 -21 0 -18 5 -32 10 -32 6 0 10 23 10 50 0 28 -4
50 -10 50 -5 0 -10 -6 -10 -12 0 -7 -5 -5 -11 5 -6 10 -8 32 -4 50 5 24 4 28
-4 17 -6 -8 -11 -29 -11 -46 0 -34 -16 -54 -43 -54 -13 0 -17 5 -13 18 14 49
16 90 5 117 -9 23 -13 26 -16 13 -6 -24 -23 -23 -23 2 0 11 -7 20 -15 20 -11
0 -15 12 -15 49 0 39 -4 51 -18 55 -22 7 -62 110 -62 159 0 20 -4 37 -10 37
-5 0 -10 -6 -10 -12 -1 -25 -21 22 -26 59 -2 21 -11 41 -19 46 -8 4 -15 17
-15 27 0 11 -4 20 -10 20 -5 0 -10 7 -10 15 0 8 -5 14 -12 13 -7 -2 -15 16
-19 45 -5 30 -16 55 -28 66 -12 10 -21 24 -21 30 0 7 -4 9 -10 6 -6 -4 -10 6
-10 23 0 26 -31 72 -48 72 -8 0 -32 48 -32 63 0 14 -52 57 -62 51 -15 -10 -36
15 -42 51 -4 20 -13 35 -20 35 -8 0 -16 7 -20 15 -3 8 -16 19 -29 24 -15 6
-28 24 -36 48 -10 30 -18 39 -35 39 -16 -1 -22 6 -24 26 -2 14 -10 32 -18 38
-8 7 -14 21 -14 31 0 11 -4 19 -10 19 -5 0 -10 6 -10 14 0 8 -7 16 -15 20 -8
3 -15 15 -15 26 0 26 -27 80 -40 80 -6 0 -10 18 -10 40 0 27 -7 47 -20 60 -11
11 -20 27 -20 35 0 8 -4 15 -10 15 -5 0 -10 20 -10 45 0 28 4 45 12 45 6 0 4
6 -6 13 -10 7 -19 25 -19 40 -2 25 -4 26 -45 20 -37 -5 -42 -4 -36 11 3 9 12
16 19 16 7 0 15 7 19 15 3 8 2 15 -3 15 -5 0 -12 10 -16 23 -19 55 -25 62 -21
28 3 -31 2 -32 -11 -16 -7 11 -13 26 -13 35 0 9 -11 22 -25 28 -17 8 -25 20
-25 37 0 14 -7 28 -16 32 -11 4 -14 13 -10 29 5 19 1 27 -19 36 -21 9 -28 9
-34 -1 -7 -10 -9 -10 -14 2 -3 8 -1 19 5 25 6 6 7 16 3 23 -5 8 -12 2 -22 -17
-7 -16 -11 -20 -8 -10 8 27 -4 58 -20 52 -7 -2 -23 7 -36 21 -35 37 -95 73
-123 73 -28 0 -56 49 -56 100 0 18 -4 29 -10 25 -5 -3 -10 0 -10 7 0 7 -9 19
-20 26 -13 8 -18 20 -16 39 2 16 1 20 -1 11 -2 -10 -8 -18 -11 -18 -11 0 -42
38 -42 51 0 8 -4 8 -14 -1 -22 -18 -59 -8 -73 20 -9 17 -13 20 -13 8 0 -20
-27 -27 -58 -14 -15 6 -34 6 -57 -1 -25 -8 -35 -8 -39 1 -2 6 -5 4 -5 -5 -1
-19 -47 -53 -60 -44 -5 3 -12 -13 -16 -35 -6 -34 -11 -40 -31 -40 -19 0 -29
-10 -45 -45 -12 -25 -25 -48 -30 -51 -5 -3 -9 -13 -9 -22 0 -15 2 -15 10 -2 7
11 10 12 10 2 0 -7 -7 -20 -15 -28 -13 -14 -15 -13 -15 5 0 38 -20 33 -22 -6
-3 -58 1 -88 10 -91 5 -1 3 -26 -5 -54 -17 -69 -17 -87 5 -95 27 -10 52 -40
52 -64 0 -11 -16 -37 -35 -58 -109 -114 -105 -108 -106 -185 -1 -39 -2 -93 -3
-121 l-1 -50 -78 -42 c-43 -23 -90 -54 -103 -68 -50 -55 -94 -253 -94 -429 0
-50 -5 -129 -10 -176 -7 -58 -6 -97 0 -120 6 -19 13 -53 16 -75 3 -22 14 -70
25 -106 10 -36 19 -80 19 -97 0 -17 7 -38 16 -46 10 -10 16 -34 16 -64 0 -34
8 -59 29 -93 16 -25 29 -51 29 -57 0 -7 21 -52 46 -102 25 -49 47 -103 48
-119 2 -28 36 -86 77 -130 11 -12 23 -34 25 -49 3 -14 10 -32 16 -39 5 -7 11
-37 12 -67 1 -30 5 -58 9 -62 4 -4 7 -20 7 -36 0 -16 11 -50 24 -77 15 -29 23
-57 19 -70 -7 -26 18 -171 29 -171 4 0 8 12 9 28 0 24 1 25 9 7 4 -11 4 -24
-1 -30 -12 -12 -12 -45 0 -45 5 0 12 6 15 13 5 9 7 9 12 0 8 -19 1430 -19
1437 0 4 9 6 9 6 0 1 -10 109 -13 506 -13 l505 0 -1 23 c-1 56 -18 120 -33
129 -9 5 -17 21 -17 36 l-1 27 -8 -30 c-7 -28 -8 -28 -9 -5 0 14 4 45 10 69 7
31 6 47 -2 57 -15 19 -29 8 -29 -23 0 -25 -1 -26 -20 -8 -17 15 -17 19 -5 32
20 19 19 87 -1 108 -15 14 -15 18 1 41 28 43 11 89 -36 96 -26 3 -27 11 -13
90 4 24 2 38 -4 38 -6 0 -12 17 -14 38 -2 25 -7 36 -17 34 -22 -5 -61 50 -61
85 0 48 -17 83 -40 83 -13 0 -20 -7 -20 -20 0 -11 -5 -20 -11 -20 -8 0 -8 -4
-1 -12 5 -7 8 -29 7 -48 -2 -19 3 -45 11 -57 8 -12 13 -37 13 -55 l-2 -33 -7
35 c-4 19 -8 29 -9 21 -2 -27 -12 -3 -16 40 -2 24 -7 62 -10 84 -18 142 -34
312 -30 324 3 8 2 17 -3 20 -13 9 -54 391 -48 453 3 36 3 42 -2 18 -5 -27 -11
1 -24 120 -20 172 -46 399 -83 715 -14 116 -34 291 -45 390 -12 99 -30 252
-40 340 -11 88 -25 206 -32 263 -6 56 -16 102 -21 102 -5 0 -7 -14 -3 -32z
m-1552 -710 c4 -32 1 -56 -6 -62 -15 -14 -56 -18 -56 -6 0 6 9 10 20 10 20 0
23 9 24 92 0 45 13 22 18 -34z m-160 -5 c23 -21 23 -36 -1 -57 -18 -17 -20
-17 -40 3 -12 12 -21 26 -21 31 0 6 -7 10 -15 10 -8 0 -15 7 -15 15 0 21 68
20 92 -2z m710 -45 c-6 -6 -15 -8 -19 -4 -4 4 -1 11 7 16 19 12 27 3 12 -12z
m-597 -365 c-7 -238 -8 -240 -20 -48 -12 180 -11 241 3 275 9 22 20 -126 17
-227z m183 202 c-3 -3 -9 2 -12 12 -6 14 -5 15 5 6 7 -7 10 -15 7 -18z m-11
-112 c-2 -16 -4 -5 -4 22 0 28 2 40 4 28 2 -13 2 -35 0 -50z m80 35 c-3 -8 -6
-5 -6 6 -1 11 2 17 5 13 3 -3 4 -12 1 -19z m63 -327 c0 -5 -9 -7 -20 -4 -11 3
-20 7 -20 9 0 2 9 4 20 4 11 0 20 -4 20 -9z m-235 -51 c3 -5 -1 -10 -9 -10 -9
0 -16 5 -16 10 0 6 4 10 9 10 6 0 13 -4 16 -10z m-76 -108 c1 -7 -3 -10 -9 -7
-5 3 -10 18 -9 33 0 24 1 25 9 7 5 -11 9 -26 9 -33z m216 -62 c-21 -8 -35 -4
-35 9 0 5 12 6 27 3 24 -5 25 -6 8 -12z m-311 -69 c3 -5 -1 -14 -8 -20 -16
-13 -32 2 -21 19 8 12 22 13 29 1z m-137 -183 c-3 -8 -6 -5 -6 6 -1 11 2 17 5
13 3 -3 4 -12 1 -19z m-107 -33 c0 -8 -2 -15 -4 -15 -2 0 -6 7 -10 15 -3 8 -1
15 4 15 6 0 10 -7 10 -15z m1653 -654 c24 -1 22 -27 -3 -34 -11 -3 -20 -1 -20
4 0 5 -9 9 -20 9 -11 0 -20 7 -20 15 0 10 7 14 23 11 12 -3 30 -5 40 -5z m667
-211 c0 -16 -4 -30 -10 -30 -5 0 -10 14 -10 30 0 17 5 30 10 30 6 0 10 -13 10
-30z m7 -172 c-3 -8 -6 -5 -6 6 -1 11 2 17 5 13 3 -3 4 -12 1 -19z m-837 2 c0
-5 -9 -10 -20 -10 -11 0 -20 5 -20 10 0 6 9 10 20 10 11 0 20 -4 20 -10z m-23
-52 c-3 -7 -5 -2 -5 12 0 14 2 19 5 13 2 -7 2 -19 0 -25z m803 -40 c0 -34 -4
-48 -9 -38 -8 14 -3 90 5 90 2 0 4 -24 4 -52z m-833 10 c-3 -7 -5 -2 -5 12 0
14 2 19 5 13 2 -7 2 -19 0 -25z m726 7 c4 -8 2 -17 -3 -20 -6 -4 -10 3 -10 14
0 25 6 27 13 6z m224 -17 c-3 -7 -5 -2 -5 12 0 14 2 19 5 13 2 -7 2 -19 0 -25z
m-830 -120 c-3 -7 -5 -2 -5 12 0 14 2 19 5 13 2 -7 2 -19 0 -25z m43 -274 c0
-8 -4 -12 -10 -9 -5 3 -10 13 -10 21 0 8 5 12 10 9 6 -3 10 -13 10 -21z
m-1499 -45 c-5 -13 -10 -19 -10 -12 -1 15 10 45 15 40 3 -2 0 -15 -5 -28z
m1446 -1 c-3 -7 -5 -2 -5 12 0 14 2 19 5 13 2 -7 2 -19 0 -25z m1033 -60 c-1
-26 -3 -30 -10 -16 -6 9 -7 23 -4 32 9 25 14 19 14 -16z"/>
<path d="M3312 3545 c0 -16 2 -22 5 -12 2 9 2 23 0 30 -3 6 -5 -1 -5 -18z"/>
<path d="M3320 3457 c0 -14 5 -29 10 -32 7 -4 8 3 4 22 -9 38 -14 42 -14 10z"/>
<path d="M3332 3340 c0 -14 2 -19 5 -12 2 6 2 18 0 25 -3 6 -5 1 -5 -13z"/>
<path d="M3343 3245 c0 -22 2 -30 4 -17 2 12 2 30 0 40 -3 9 -5 -1 -4 -23z"/>
<path d="M3352 3170 c0 -14 2 -19 5 -12 2 6 2 18 0 25 -3 6 -5 1 -5 -13z"/>
<path d="M3366 3020 c2 -36 9 -101 14 -145 14 -121 28 -266 60 -635 44 -488
59 -655 70 -745 5 -44 14 -136 20 -205 6 -69 15 -167 20 -218 26 -240 30 -282
36 -357 3 -44 8 -82 10 -84 2 -2 4 297 4 666 0 657 0 670 -20 688 -11 10 -20
28 -20 39 -1 41 -29 -58 -36 -125 -4 -45 -3 -69 5 -73 6 -4 11 -19 10 -34 l-1
-27 -8 25 c-5 18 -9 21 -13 10 -3 -8 -8 -22 -11 -30 -3 -8 -4 6 -2 32 2 26 0
45 -5 42 -5 -3 -9 3 -10 13 -4 83 -8 143 -17 233 -40 393 -52 515 -61 590 -6
47 -15 141 -21 210 -7 69 -16 141 -20 160 -7 27 -8 20 -4 -30z m209 -1066 c0
-19 -5 -29 -15 -29 -16 0 -25 28 -16 51 10 25 31 10 31 -22z m-25 -103 c0 -6
-4 -13 -10 -16 -5 -3 -10 1 -10 9 0 9 5 16 10 16 6 0 10 -4 10 -9z m20 -81 c0
-5 -2 -10 -4 -10 -3 0 -8 5 -11 10 -3 6 -1 10 4 10 6 0 11 -4 11 -10z m-53
-77 c-3 -10 -5 -2 -5 17 0 19 2 27 5 18 2 -10 2 -26 0 -35z"/>
<path d="M3461 2388 c0 -9 -4 -25 -7 -35 -5 -14 -4 -15 5 -7 7 7 11 22 8 35
-2 13 -5 16 -6 7z"/>
<path d="M3580 2311 c-6 -16 -20 -37 -31 -47 -23 -20 -24 -50 -4 -84 14 -24
15 -23 9 18 -5 28 -3 42 5 42 6 0 11 -4 11 -10 0 -5 7 -10 15 -10 12 0 15 13
15 60 0 33 -2 60 -4 60 -2 0 -9 -13 -16 -29z"/>
<path d="M3536 2114 c-9 -24 -7 -54 4 -54 6 0 10 16 10 35 0 38 -4 44 -14 19z"/>
<path d="M2750 1546 c0 -14 5 -26 10 -26 6 0 10 9 10 19 0 11 -4 23 -10 26 -6
4 -10 -5 -10 -19z"/>
<path d="M1 1271 c2 -123 10 -160 29 -131 5 8 7 23 4 34 -4 10 -2 21 4 25 17
11 25 51 10 51 -7 0 1 9 19 20 34 20 70 67 59 77 -3 3 -14 -1 -23 -10 -10 -8
-30 -18 -45 -22 -25 -6 -28 -4 -38 34 -6 23 -13 41 -16 41 -3 0 -4 -54 -3
-119z"/>
<path d="M3262 1345 c0 -16 2 -22 5 -12 2 9 2 23 0 30 -3 6 -5 -1 -5 -18z"/>
<path d="M3291 1304 c0 -11 3 -14 6 -6 3 7 2 16 -1 19 -3 4 -6 -2 -5 -13z"/>
<path d="M2880 1260 c0 -11 5 -20 10 -20 6 0 10 9 10 20 0 11 -4 20 -10 20 -5
0 -10 -9 -10 -20z"/>
<path d="M3220 1269 c0 -5 5 -7 10 -4 6 3 10 8 10 11 0 2 -4 4 -10 4 -5 0 -10
-5 -10 -11z"/>
<path d="M3225 1230 c3 -5 8 -10 11 -10 2 0 4 5 4 10 0 6 -5 10 -11 10 -5 0
-7 -4 -4 -10z"/>
<path d="M22 1100 c0 -14 2 -19 5 -12 2 6 2 18 0 25 -3 6 -5 1 -5 -13z"/>
<path d="M3272 1050 c0 -19 2 -27 5 -17 2 9 2 25 0 35 -3 9 -5 1 -5 -18z"/>
<path d="M3252 1020 c0 -14 2 -19 5 -12 2 6 2 18 0 25 -3 6 -5 1 -5 -13z"/>
<path d="M3310 980 c0 -37 2 -40 15 -26 8 8 15 20 15 26 0 6 -7 18 -15 26 -13
14 -15 11 -15 -26z"/>
<path d="M3293 975 c0 -22 2 -30 4 -17 2 12 2 30 0 40 -3 9 -5 -1 -4 -23z"/>
<path d="M3512 970 c0 -14 2 -19 5 -12 2 6 2 18 0 25 -3 6 -5 1 -5 -13z"/>
<path d="M3352 940 c0 -14 2 -19 5 -12 2 6 2 18 0 25 -3 6 -5 1 -5 -13z"/>
<path d="M3130 850 c0 -5 5 -10 11 -10 5 0 7 5 4 10 -3 6 -8 10 -11 10 -2 0
-4 -4 -4 -10z"/>
<path d="M3171 825 c0 -12 -6 -26 -13 -33 -6 -6 -9 -15 -5 -19 13 -13 29 14
24 43 -2 18 -5 21 -6 9z"/>
<path d="M3562 740 c0 -14 2 -19 5 -12 2 6 2 18 0 25 -3 6 -5 1 -5 -13z"/>
<path d="M3561 693 c0 -4 4 -17 9 -28 8 -19 9 -19 9 2 1 12 -3 25 -9 28 -5 3
-10 3 -9 -2z"/>
<path d="M3442 598 c6 -18 28 -21 28 -4 0 9 -7 16 -16 16 -9 0 -14 -5 -12 -12z"/>
<path d="M3516 355 c4 -8 8 -15 10 -15 2 0 4 7 4 15 0 8 -4 15 -10 15 -5 0 -7
-7 -4 -15z"/>
<path d="M901 254 c0 -11 3 -14 6 -6 3 7 2 16 -1 19 -3 4 -6 -2 -5 -13z"/>
<path d="M994 77 c-4 -12 -1 -25 9 -35 22 -22 27 -13 11 23 -11 26 -13 27 -20
12z"/>
<path d="M705 10 c-3 -5 1 -10 10 -10 9 0 13 5 10 10 -3 6 -8 10 -10 10 -2 0
-7 -4 -10 -10z"/>
</g>
</svg>
